<?xml version="1.0" encoding="utf-8"?>
<!-- Svg Vector Icons : http://www.onlinewebfonts.com/icon -->
<!DOCTYPE svg PUBLIC "-//W3C//DTD SVG 1.1//EN" "http://www.w3.org/Graphics/SVG/1.1/DTD/svg11.dtd">
<svg version="1.1" xmlns="http://www.w3.org/2000/svg" xmlns:xlink="http://www.w3.org/1999/xlink" x="0px" y="0px" viewBox="0 0 1000 1000" enable-background="new 0 0 1000 1000" xml:space="preserve">
<metadata> Svg Vector Icons : http://www.onlinewebfonts.com/icon </metadata>
<g><path d="M990,355c0-163.4-128.2-296.3-285.6-296.3c-77.6,0-151.4,39.6-204.5,96.7c-53.1-57.2-126.8-96.7-204.5-96.7C138,58.7,10,191.6,10,355c0,5.4,0.4,10.3,0.8,14.3c-0.1,1.3-0.1,2.7-0.1,4c0,28.9,7,60.7,20.9,94.5c0.4,1.3,0.7,2.5,1.3,3.7c87,208.7,421.9,448.8,436.2,459.8c8.8,6.8,19.4,10.1,30,10.1c10.7,0,21.4-3.4,30.2-10.5c12.1-9.5,297.8-215,411.3-409.7c4.3-6.7,7.4-12.9,10.3-18.5c1-1.7,1.7-3.4,2.6-5.2l0.4-0.8c0.4-0.6,0.8-1.3,1.1-2c6.9-13.3,12.2-25.5,16.5-37.5c11.8-30.8,17.6-58.3,17.6-84c0-2-0.1-3.7-0.2-5.2C989.4,364.8,990,360.3,990,355z"/></g>
</svg>