<svg version="1.1" xmlns="http://www.w3.org/2000/svg" xmlns:xlink="http://www.w3.org/1999/xlink" x="0px" y="0px" viewBox="0 0 1000 1000" enable-background="new 0 0 1000 1000" xml:space="preserve">
<g><path d="M776.1,968.1c-8.2,0-16.3-2.3-23.5-7L500,797.3L247.3,961.2c-15.1,9.8-34.6,9.2-49.1-1.5c-14.5-10.6-20.8-29.2-15.9-46.5l79.1-280.8L25.3,432.6C11.9,421.3,6.7,403,12.1,386.3s20.4-28.4,37.9-29.7l283.2-20.4L460.7,57.1c7-15.4,22.4-25.2,39.3-25.2c16.9,0,32.3,9.9,39.3,25.2l127.5,279.1l283.2,20.4c17.5,1.3,32.5,13,37.9,29.7c5.4,16.7,0.2,35-13.2,46.3L738.6,632.5l79.1,280.8c4.9,17.3-1.5,35.8-15.9,46.5C794.1,965.3,785.1,968.1,776.1,968.1z M500,702.7c8.2,0,16.4,2.3,23.5,7l180,116.8l-55.6-197.2c-4.6-16.3,0.7-33.7,13.7-44.7l176.5-149.4L635,420.5c-15.7-1.1-29.6-10.8-36.2-25.1L500,179l-98.8,216.4c-6.6,14.4-20.4,24-36.2,25.1l-203.1,14.6l176.5,149.4c12.9,10.9,18.3,28.4,13.7,44.7l-55.6,197.2l180-116.8C483.7,705,491.8,702.7,500,702.7z"/></g>
</svg>