<?xml version="1.0" encoding="utf-8"?>
<!-- Svg Vector Icons : http://www.onlinewebfonts.com/icon -->
<!DOCTYPE svg PUBLIC "-//W3C//DTD SVG 1.1//EN" "http://www.w3.org/Graphics/SVG/1.1/DTD/svg11.dtd">
<svg version="1.1" xmlns="http://www.w3.org/2000/svg" xmlns:xlink="http://www.w3.org/1999/xlink" x="0px" y="0px" viewBox="0 0 1000 1000" enable-background="new 0 0 1000 1000" xml:space="preserve">
<metadata> Svg Vector Icons : http://www.onlinewebfonts.com/icon </metadata>
<g><path d="M500.6,943.6c-10.5,0-20.6-3.6-28.5-10C6.3,624.5,8.3,351.9,10.3,319.6C11.2,174.3,130.5,56.4,277.1,56.4c93,0,175.2,47.5,222.9,119.6c47.7-72,129.8-119.6,222.9-119.6c146.5,0,266,117.9,266.8,263.3c2,32.2,4.1,303.4-458,611.5C523.6,939,512.5,943.6,500.6,943.6L500.6,943.6z M737.3,645.4c171-185.7,163.7-318.5,163.6-320.2c-0.2-101.3-80-180.6-178-180.6c-98,0-177.7,79.3-177.7,176.6c0,24.6-20.7,43.9-45.2,44.1c-25.4-0.5-45.3-19.5-45.3-44.1c0-97.4-79.7-176.6-177.7-176.6l0,0c-98,0-177.8,79.3-177.8,176.6c0,1.5-0.1,3-0.2,4.4C99,327.5,86,562.9,500,845.8C603.4,775.1,680.3,707.3,737.3,645.4"/></g>
</svg>