<svg version="1.1" xmlns="http://www.w3.org/2000/svg" xmlns:xlink="http://www.w3.org/1999/xlink" x="0px" y="0px" viewBox="0 0 1000 1000" enable-background="new 0 0 1000 1000" xml:space="preserve">
<g><path d="M21.4,412.3c-10.1-7.9-13.9-20.6-9.8-32.8c4.1-12.1,14.9-19.9,27.7-20.1l304.6-4c12.5-0.2,23.1-7.6,27.4-19.4L476.4,50.1c4.5-12,15.4-19.6,28.2-19.4c12.8,0.2,23.6,7.9,27.7,20.1l97.9,288.5c4,11.9,14.4,19.6,26.9,20.1L961.5,371c12.8,0.5,23.3,8.6,27.1,20.8c3.8,12.2-0.3,24.9-10.5,32.5L733.9,606.6c-10.1,7.5-14.2,19.7-10.8,31.8l83,293.1c3.5,12.3-0.9,24.8-11.4,32.2c-10.5,7.4-23.7,7.4-34.2,0L511.9,787.8c-10.3-7.3-23.2-7.4-33.6-0.4L225.2,957c-10.7,7.2-23.9,6.8-34.2-0.9c-10.3-7.6-14.4-20.2-10.6-32.5l90.4-290.9c3.7-12-0.1-24.3-10-32L21.4,412.3z"/></g>
</svg>